<svg width="414" height="228" viewBox="0 0 414 228" fill="none" xmlns="http://www.w3.org/2000/svg">
<rect width="414" height="228" fill="#F5F5F5"/>
<g clip-path="url(#clip0_0_1)">
<rect x="-437" y="-102" width="1440" height="1024" rx="20" fill="white"/>
<rect width="414" height="228" rx="20" fill="url(#paint0_linear_0_1)"/>
<circle cx="346.716" cy="42.7159" r="18.7159" fill="#F12309"/>
<circle cx="370.284" cy="42.7159" r="18.7159" fill="#FB9F01"/>
<path fill-rule="evenodd" clip-rule="evenodd" d="M358.5 28.1748C362.729 31.6063 365.432 36.8454 365.432 42.7159C365.432 48.5864 362.729 53.8255 358.5 57.257C354.271 53.8255 351.568 48.5864 351.568 42.7159C351.568 36.8454 354.271 31.6063 358.5 28.1748V28.1748Z" fill="#FF6100"/>
<text fill="white" xml:space="preserve" style="white-space: pre" font-family="Roboto" font-size="18.3314" letter-spacing="0em"><tspan x="24.073" y="38.7656">Name</tspan></text>
<text fill="white" xml:space="preserve" style="white-space: pre" font-family="Roboto" font-size="18.3314" letter-spacing="0em"><tspan x="24.3651" y="169.766">Balance</tspan></text>
<text fill="white" xml:space="preserve" style="white-space: pre" font-family="Roboto" font-size="26.2659" letter-spacing="0em"><tspan x="24.1498" y="79.4776">Alex benjamin</tspan></text>
<text fill="white" xml:space="preserve" style="white-space: pre" font-family="Roboto" font-size="25.3278" letter-spacing="0em"><tspan x="24.4666" y="134.657">****   ****   ****   ****</tspan></text>
<text fill="white" xml:space="preserve" style="white-space: pre" font-family="Roboto" font-size="17.3296" letter-spacing="0em"><tspan x="274.004" y="127.923">1590</tspan></text>
<text fill="white" xml:space="preserve" style="white-space: pre" font-family="Roboto" font-size="18.3314" letter-spacing="0em"><tspan x="24.2939" y="202.766">5,580,200</tspan></text>
<text fill="white" xml:space="preserve" style="white-space: pre" font-family="Roboto" font-size="18.3314" letter-spacing="0em"><tspan x="114.344" y="202.766">$</tspan></text>
</g>
<defs>
<linearGradient id="paint0_linear_0_1" x1="139" y1="161" x2="493" y2="-33" gradientUnits="userSpaceOnUse">
<stop stop-color="#3988D0"/>
<stop offset="1" stop-color="#3376B4" stop-opacity="0"/>
</linearGradient>
<clipPath id="clip0_0_1">
<rect x="-437" y="-102" width="1440" height="1024" rx="20" fill="white"/>
</clipPath>
</defs>
</svg>
