<svg width="414" height="228" viewBox="0 0 414 228" fill="none" xmlns="http://www.w3.org/2000/svg">
<rect width="414" height="228" rx="20" fill="url(#paint0_linear_102_22)"/>
<circle cx="346.716" cy="42.7159" r="18.7159" fill="#F12309"/>
<circle cx="370.284" cy="42.7159" r="18.7159" fill="#FB9F01"/>
<path fill-rule="evenodd" clip-rule="evenodd" d="M358.5 28.1748C362.729 31.6063 365.432 36.8454 365.432 42.7159C365.432 48.5864 362.729 53.8255 358.5 57.257C354.271 53.8255 351.568 48.5864 351.568 42.7159C351.568 36.8454 354.271 31.6063 358.5 28.1748V28.1748Z" fill="#FF6100"/>
<path d="M35.6107 25.9675V39H33.8743L27.3133 28.9482V39H25.5857V25.9675H27.3133L33.9011 36.0462V25.9675H35.6107ZM44.132 37.3441V32.3584C44.132 31.9765 44.0544 31.6454 43.8992 31.3649C43.7501 31.0785 43.5233 30.8577 43.219 30.7025C42.9146 30.5474 42.5387 30.4698 42.0912 30.4698C41.6735 30.4698 41.3065 30.5414 40.9902 30.6846C40.6799 30.8278 40.4353 31.0158 40.2562 31.2485C40.0832 31.4813 39.9967 31.7319 39.9967 32.0004H38.3407C38.3407 31.6543 38.4303 31.3112 38.6093 30.9711C38.7883 30.6309 39.0449 30.3236 39.379 30.0491C39.7192 29.7687 40.125 29.5479 40.5964 29.3867C41.0737 29.2197 41.6048 29.1361 42.1896 29.1361C42.8938 29.1361 43.5144 29.2555 44.0514 29.4942C44.5944 29.7328 45.0181 30.0939 45.3224 30.5772C45.6327 31.0546 45.7879 31.6543 45.7879 32.3763V36.8876C45.7879 37.2098 45.8147 37.5529 45.8684 37.9169C45.9281 38.2809 46.0146 38.5942 46.128 38.8568V39H44.4005C44.317 38.809 44.2513 38.5554 44.2036 38.2392C44.1558 37.9169 44.132 37.6186 44.132 37.3441ZM44.4184 33.1282L44.4363 34.2918H42.7625C42.2911 34.2918 41.8704 34.3306 41.5004 34.4082C41.1304 34.4798 40.8201 34.5902 40.5695 34.7394C40.3189 34.8886 40.1279 35.0765 39.9967 35.3033C39.8654 35.5241 39.7997 35.7836 39.7997 36.082C39.7997 36.3863 39.8684 36.6638 40.0056 36.9144C40.1429 37.1651 40.3487 37.365 40.6232 37.5142C40.9037 37.6574 41.2468 37.729 41.6526 37.729C42.1598 37.729 42.6073 37.6216 42.9952 37.4067C43.3831 37.1919 43.6904 36.9294 43.9171 36.6191C44.1499 36.3088 44.2752 36.0074 44.2931 35.715L45.0002 36.5117C44.9584 36.7623 44.8451 37.0398 44.6601 37.3441C44.4751 37.6484 44.2274 37.9408 43.9171 38.2213C43.6128 38.4958 43.2488 38.7255 42.8251 38.9105C42.4074 39.0895 41.936 39.179 41.4109 39.179C40.7545 39.179 40.1787 39.0507 39.6834 38.7941C39.1941 38.5375 38.8122 38.1944 38.5377 37.7648C38.2691 37.3292 38.1349 36.8428 38.1349 36.3058C38.1349 35.7866 38.2363 35.3301 38.4392 34.9363C38.6421 34.5365 38.9345 34.2053 39.3164 33.9427C39.6983 33.6742 40.1578 33.4713 40.6948 33.3341C41.2319 33.1968 41.8316 33.1282 42.494 33.1282H44.4184ZM50.0396 31.2396V39H48.3747V29.3151H49.95L50.0396 31.2396ZM49.6994 33.7906L48.9296 33.7637C48.9356 33.1014 49.0221 32.4897 49.1892 31.9288C49.3563 31.3619 49.6039 30.8696 49.9321 30.4519C50.2603 30.0342 50.6691 29.712 51.1584 29.4852C51.6477 29.2525 52.2146 29.1361 52.8591 29.1361C53.3126 29.1361 53.7303 29.2018 54.1122 29.333C54.4941 29.4584 54.8253 29.6583 55.1058 29.9328C55.3862 30.2072 55.604 30.5593 55.7592 30.989C55.9143 31.4186 55.9919 31.9378 55.9919 32.5464V39H54.336V32.627C54.336 32.1198 54.2495 31.714 54.0764 31.4096C53.9093 31.1053 53.6706 30.8845 53.3603 30.7473C53.05 30.6041 52.686 30.5325 52.2683 30.5325C51.779 30.5325 51.3703 30.619 51.0421 30.792C50.7139 30.9651 50.4513 31.2038 50.2544 31.5081C50.0575 31.8124 49.9142 32.1615 49.8247 32.5554C49.7412 32.9432 49.6994 33.355 49.6994 33.7906ZM55.974 32.8776L54.8641 33.2177C54.87 32.6866 54.9566 32.1764 55.1237 31.6871C55.2967 31.1978 55.5443 30.7622 55.8666 30.3803C56.1948 29.9984 56.5976 29.697 57.0749 29.4763C57.5523 29.2495 58.0983 29.1361 58.713 29.1361C59.2321 29.1361 59.6916 29.2047 60.0914 29.342C60.4972 29.4792 60.8373 29.6911 61.1118 29.9775C61.3923 30.258 61.6041 30.619 61.7473 31.0606C61.8905 31.5021 61.9621 32.0273 61.9621 32.6359V39H60.2973V32.618C60.2973 32.075 60.2107 31.6543 60.0377 31.3559C59.8706 31.0516 59.6319 30.8398 59.3216 30.7204C59.0173 30.5951 58.6533 30.5325 58.2296 30.5325C57.8656 30.5325 57.5434 30.5951 57.2629 30.7204C56.9825 30.8457 56.7467 31.0188 56.5558 31.2396C56.3648 31.4544 56.2186 31.702 56.1172 31.9825C56.0217 32.263 55.974 32.5613 55.974 32.8776ZM68.4873 39.179C67.813 39.179 67.2014 39.0656 66.6524 38.8389C66.1094 38.6062 65.6409 38.2809 65.2471 37.8632C64.8592 37.4455 64.5609 36.9502 64.352 36.3774C64.1432 35.8045 64.0387 35.178 64.0387 34.4977V34.1218C64.0387 33.3341 64.1551 32.6329 64.3878 32.0183C64.6205 31.3977 64.9368 30.8726 65.3366 30.443C65.7364 30.0133 66.1899 29.6881 66.6972 29.4673C67.2044 29.2465 67.7295 29.1361 68.2725 29.1361C68.9647 29.1361 69.5614 29.2555 70.0627 29.4942C70.5699 29.7328 70.9846 30.067 71.3069 30.4967C71.6291 30.9203 71.8678 31.4216 72.0229 32.0004C72.1781 32.5733 72.2557 33.1998 72.2557 33.8801V34.623H65.0233V33.2714H70.5997V33.1461C70.5759 32.7165 70.4864 32.2988 70.3312 31.893C70.182 31.4872 69.9433 31.1531 69.6151 30.8905C69.2869 30.6279 68.8394 30.4967 68.2725 30.4967C67.8966 30.4967 67.5505 30.5772 67.2342 30.7383C66.9179 30.8935 66.6464 31.1262 66.4197 31.4365C66.1929 31.7468 66.0169 32.1257 65.8916 32.5733C65.7663 33.0208 65.7036 33.537 65.7036 34.1218V34.4977C65.7036 34.9572 65.7663 35.3898 65.8916 35.7956C66.0229 36.1954 66.2108 36.5475 66.4555 36.8518C66.7061 37.1561 67.0074 37.3948 67.3595 37.5679C67.7176 37.7409 68.1233 37.8274 68.5768 37.8274C69.1616 37.8274 69.6569 37.7081 70.0627 37.4694C70.4685 37.2307 70.8235 36.9115 71.1278 36.5117L72.1303 37.3083C71.9215 37.6245 71.6559 37.9259 71.3337 38.2123C71.0115 38.4988 70.6147 38.7315 70.1432 38.9105C69.6778 39.0895 69.1258 39.179 68.4873 39.179Z" fill="white"/>
<path d="M30.5233 163.904H27.2204L27.2025 162.517H30.201C30.6963 162.517 31.129 162.434 31.4989 162.266C31.8689 162.099 32.1553 161.861 32.3582 161.55C32.5671 161.234 32.6715 160.858 32.6715 160.423C32.6715 159.945 32.579 159.557 32.394 159.259C32.215 158.955 31.9375 158.734 31.5616 158.597C31.1916 158.453 30.7202 158.382 30.1473 158.382H27.6053V170H25.8778V156.968H30.1473C30.8157 156.968 31.4124 157.036 31.9375 157.173C32.4626 157.305 32.9072 157.514 33.2712 157.8C33.6412 158.08 33.9216 158.438 34.1126 158.874C34.3035 159.31 34.399 159.832 34.399 160.44C34.399 160.978 34.2618 161.464 33.9873 161.899C33.7128 162.329 33.3309 162.681 32.8416 162.956C32.3582 163.23 31.7913 163.406 31.1409 163.484L30.5233 163.904ZM30.4427 170H26.5401L27.5158 168.595H30.4427C30.9917 168.595 31.4572 168.499 31.8391 168.308C32.2269 168.117 32.5223 167.849 32.7252 167.503C32.9281 167.151 33.0295 166.736 33.0295 166.259C33.0295 165.775 32.943 165.357 32.7699 165.005C32.5969 164.653 32.3254 164.382 31.9554 164.191C31.5854 164 31.1081 163.904 30.5233 163.904H28.0618L28.0797 162.517H31.4452L31.8122 163.018C32.4388 163.072 32.9699 163.251 33.4055 163.555C33.8411 163.854 34.1723 164.236 34.399 164.701C34.6317 165.167 34.7481 165.68 34.7481 166.241C34.7481 167.052 34.5691 167.738 34.211 168.299C33.859 168.854 33.3607 169.278 32.7162 169.57C32.0718 169.857 31.3139 170 30.4427 170ZM42.7591 168.344V163.358C42.7591 162.977 42.6816 162.645 42.5264 162.365C42.3772 162.078 42.1505 161.858 41.8461 161.703C41.5418 161.547 41.1659 161.47 40.7183 161.47C40.3006 161.47 39.9336 161.541 39.6174 161.685C39.3071 161.828 39.0624 162.016 38.8834 162.249C38.7104 162.481 38.6238 162.732 38.6238 163H36.9679C36.9679 162.654 37.0574 162.311 37.2364 161.971C37.4155 161.631 37.6721 161.324 38.0062 161.049C38.3464 160.769 38.7521 160.548 39.2235 160.387C39.7009 160.22 40.232 160.136 40.8168 160.136C41.5209 160.136 42.1415 160.255 42.6786 160.494C43.2216 160.733 43.6453 161.094 43.9496 161.577C44.2599 162.055 44.4151 162.654 44.4151 163.376V167.888C44.4151 168.21 44.4419 168.553 44.4956 168.917C44.5553 169.281 44.6418 169.594 44.7552 169.857V170H43.0277C42.9441 169.809 42.8785 169.555 42.8307 169.239C42.783 168.917 42.7591 168.619 42.7591 168.344ZM43.0456 164.128L43.0635 165.292H41.3897C40.9182 165.292 40.4975 165.331 40.1276 165.408C39.7576 165.48 39.4473 165.59 39.1967 165.739C38.9461 165.889 38.7551 166.077 38.6238 166.303C38.4925 166.524 38.4269 166.784 38.4269 167.082C38.4269 167.386 38.4955 167.664 38.6328 167.914C38.77 168.165 38.9759 168.365 39.2504 168.514C39.5309 168.657 39.874 168.729 40.2797 168.729C40.787 168.729 41.2345 168.622 41.6224 168.407C42.0102 168.192 42.3176 167.929 42.5443 167.619C42.777 167.309 42.9024 167.007 42.9203 166.715L43.6274 167.512C43.5856 167.762 43.4722 168.04 43.2872 168.344C43.1023 168.648 42.8546 168.941 42.5443 169.221C42.24 169.496 41.876 169.726 41.4523 169.91C41.0346 170.09 40.5632 170.179 40.0381 170.179C39.3817 170.179 38.8058 170.051 38.3105 169.794C37.8212 169.538 37.4393 169.194 37.1648 168.765C36.8963 168.329 36.762 167.843 36.762 167.306C36.762 166.787 36.8635 166.33 37.0664 165.936C37.2693 165.536 37.5617 165.205 37.9436 164.943C38.3255 164.674 38.7849 164.471 39.322 164.334C39.8591 164.197 40.4588 164.128 41.1211 164.128H43.0456ZM48.8189 156.251V170H47.154V156.251H48.8189ZM57.188 168.344V163.358C57.188 162.977 57.1104 162.645 56.9552 162.365C56.8061 162.078 56.5793 161.858 56.275 161.703C55.9706 161.547 55.5947 161.47 55.1472 161.47C54.7295 161.47 54.3625 161.541 54.0462 161.685C53.7359 161.828 53.4913 162.016 53.3122 162.249C53.1392 162.481 53.0527 162.732 53.0527 163H51.3967C51.3967 162.654 51.4863 162.311 51.6653 161.971C51.8443 161.631 52.1009 161.324 52.435 161.049C52.7752 160.769 53.181 160.548 53.6524 160.387C54.1297 160.22 54.6608 160.136 55.2456 160.136C55.9498 160.136 56.5704 160.255 57.1074 160.494C57.6504 160.733 58.0741 161.094 58.3784 161.577C58.6887 162.055 58.8439 162.654 58.8439 163.376V167.888C58.8439 168.21 58.8707 168.553 58.9244 168.917C58.9841 169.281 59.0706 169.594 59.184 169.857V170H57.4565C57.373 169.809 57.3073 169.555 57.2596 169.239C57.2118 168.917 57.188 168.619 57.188 168.344ZM57.4744 164.128L57.4923 165.292H55.8185C55.3471 165.292 54.9264 165.331 54.5564 165.408C54.1864 165.48 53.8761 165.59 53.6255 165.739C53.3749 165.889 53.1839 166.077 53.0527 166.303C52.9214 166.524 52.8557 166.784 52.8557 167.082C52.8557 167.386 52.9244 167.664 53.0616 167.914C53.1989 168.165 53.4047 168.365 53.6792 168.514C53.9597 168.657 54.3028 168.729 54.7086 168.729C55.2158 168.729 55.6633 168.622 56.0512 168.407C56.4391 168.192 56.7464 167.929 56.9731 167.619C57.2059 167.309 57.3312 167.007 57.3491 166.715L58.0562 167.512C58.0144 167.762 57.9011 168.04 57.7161 168.344C57.5311 168.648 57.2834 168.941 56.9731 169.221C56.6688 169.496 56.3048 169.726 55.8811 169.91C55.4634 170.09 54.992 170.179 54.4669 170.179C53.8105 170.179 53.2347 170.051 52.7394 169.794C52.2501 169.538 51.8682 169.194 51.5937 168.765C51.3251 168.329 51.1909 167.843 51.1909 167.306C51.1909 166.787 51.2923 166.33 51.4952 165.936C51.6981 165.536 51.9905 165.205 52.3724 164.943C52.7543 164.674 53.2138 164.471 53.7508 164.334C54.2879 164.197 54.8876 164.128 55.55 164.128H57.4744ZM63.1045 162.383V170H61.4486V160.315H63.015L63.1045 162.383ZM62.7107 164.791L62.0214 164.764C62.0274 164.101 62.1259 163.49 62.3168 162.929C62.5078 162.362 62.7763 161.87 63.1224 161.452C63.4685 161.034 63.8802 160.712 64.3576 160.485C64.841 160.252 65.375 160.136 65.9598 160.136C66.4372 160.136 66.8669 160.202 67.2488 160.333C67.6307 160.458 67.9559 160.661 68.2244 160.942C68.4989 161.222 68.7078 161.586 68.851 162.034C68.9942 162.475 69.0658 163.015 69.0658 163.654V170H67.4009V163.636C67.4009 163.129 67.3263 162.723 67.1772 162.419C67.028 162.108 66.8102 161.885 66.5237 161.747C66.2373 161.604 65.8852 161.532 65.4675 161.532C65.0558 161.532 64.6799 161.619 64.3397 161.792C64.0056 161.965 63.7161 162.204 63.4715 162.508C63.2328 162.812 63.0448 163.162 62.9076 163.555C62.7763 163.943 62.7107 164.355 62.7107 164.791ZM75.4567 168.818C75.8506 168.818 76.2146 168.738 76.5487 168.577C76.8829 168.416 77.1574 168.195 77.3722 167.914C77.587 167.628 77.7094 167.303 77.7392 166.939H79.3146C79.2847 167.512 79.0908 168.046 78.7327 168.541C78.3807 169.03 77.9182 169.427 77.3454 169.731C76.7725 170.03 76.143 170.179 75.4567 170.179C74.7287 170.179 74.0932 170.051 73.5502 169.794C73.0131 169.538 72.5656 169.185 72.2076 168.738C71.8555 168.29 71.5899 167.777 71.4109 167.198C71.2379 166.614 71.1513 165.996 71.1513 165.346V164.97C71.1513 164.319 71.2379 163.705 71.4109 163.126C71.5899 162.541 71.8555 162.025 72.2076 161.577C72.5656 161.13 73.0131 160.778 73.5502 160.521C74.0932 160.264 74.7287 160.136 75.4567 160.136C76.2146 160.136 76.8769 160.291 77.4438 160.602C78.0107 160.906 78.4553 161.324 78.7775 161.855C79.1057 162.38 79.2847 162.977 79.3146 163.645H77.7392C77.7094 163.245 77.596 162.884 77.3991 162.562C77.2081 162.24 76.9456 161.983 76.6114 161.792C76.2832 161.595 75.8983 161.497 75.4567 161.497C74.9495 161.497 74.5228 161.598 74.1767 161.801C73.8366 161.998 73.5651 162.266 73.3622 162.607C73.1653 162.941 73.0221 163.314 72.9326 163.725C72.849 164.131 72.8073 164.546 72.8073 164.97V165.346C72.8073 165.769 72.849 166.187 72.9326 166.599C73.0161 167.01 73.1563 167.383 73.3533 167.718C73.5562 168.052 73.8277 168.32 74.1678 168.523C74.5139 168.72 74.9435 168.818 75.4567 168.818ZM85.1953 170.179C84.521 170.179 83.9093 170.066 83.3604 169.839C82.8173 169.606 82.3489 169.281 81.9551 168.863C81.5672 168.446 81.2688 167.95 81.06 167.377C80.8511 166.805 80.7467 166.178 80.7467 165.498V165.122C80.7467 164.334 80.8631 163.633 81.0958 163.018C81.3285 162.398 81.6448 161.873 82.0446 161.443C82.4444 161.013 82.8979 160.688 83.4051 160.467C83.9123 160.247 84.4374 160.136 84.9805 160.136C85.6727 160.136 86.2694 160.255 86.7706 160.494C87.2779 160.733 87.6926 161.067 88.0148 161.497C88.3371 161.92 88.5757 162.422 88.7309 163C88.886 163.573 88.9636 164.2 88.9636 164.88V165.623H81.7313V164.271H87.3077V164.146C87.2838 163.716 87.1943 163.299 87.0392 162.893C86.89 162.487 86.6513 162.153 86.3231 161.89C85.9949 161.628 85.5474 161.497 84.9805 161.497C84.6045 161.497 84.2584 161.577 83.9422 161.738C83.6259 161.893 83.3544 162.126 83.1276 162.437C82.9009 162.747 82.7248 163.126 82.5995 163.573C82.4742 164.021 82.4116 164.537 82.4116 165.122V165.498C82.4116 165.957 82.4742 166.39 82.5995 166.796C82.7308 167.195 82.9188 167.547 83.1634 167.852C83.4141 168.156 83.7154 168.395 84.0675 168.568C84.4255 168.741 84.8313 168.827 85.2848 168.827C85.8696 168.827 86.3649 168.708 86.7706 168.469C87.1764 168.231 87.5315 167.911 87.8358 167.512L88.8383 168.308C88.6294 168.625 88.3639 168.926 88.0417 169.212C87.7194 169.499 87.3226 169.731 86.8512 169.91C86.3858 170.09 85.8338 170.179 85.1953 170.179Z" fill="white"/>
<path d="M33.23 61.981L27.0483 79H24.5217L31.6397 60.3266H33.2685L33.23 61.981ZM38.4113 79L32.2168 61.981L32.1783 60.3266H33.8071L40.9507 79H38.4113ZM38.0907 72.0873V74.1136H27.5998V72.0873H38.0907ZM45.6704 59.3006V79H43.2849V59.3006H45.6704ZM55.2379 79.2565C54.2718 79.2565 53.3954 79.0941 52.6088 78.7691C51.8307 78.4357 51.1595 77.9697 50.5952 77.3712C50.0395 76.7727 49.612 76.063 49.3127 75.2422C49.0135 74.4214 48.8638 73.5237 48.8638 72.549V72.0103C48.8638 70.8817 49.0306 69.8771 49.364 68.9964C49.6975 68.1072 50.1506 67.3548 50.7235 66.7392C51.2963 66.1236 51.9461 65.6576 52.6729 65.3412C53.3997 65.0249 54.1521 64.8667 54.9301 64.8667C55.9219 64.8667 56.7769 65.0377 57.4952 65.3797C58.2219 65.7217 58.8161 66.2005 59.2778 66.8161C59.7396 67.4232 60.0816 68.1414 60.3039 68.9707C60.5262 69.7916 60.6373 70.6893 60.6373 71.664V72.7285H50.2746V70.7919H58.2647V70.6124C58.2305 69.9968 58.1022 69.3982 57.8799 68.8168C57.6662 68.2354 57.3241 67.7566 56.8539 67.3804C56.3836 67.0042 55.7424 66.8161 54.9301 66.8161C54.3915 66.8161 53.8956 66.9315 53.4424 67.1624C52.9893 67.3847 52.6002 67.7182 52.2753 68.1628C51.9504 68.6074 51.6982 69.1503 51.5186 69.7916C51.3391 70.4328 51.2493 71.1724 51.2493 72.0103V72.549C51.2493 73.2073 51.3391 73.8272 51.5186 74.4086C51.7067 74.9815 51.9761 75.4859 52.3266 75.922C52.6857 76.358 53.1175 76.7 53.622 76.948C54.135 77.1959 54.7164 77.3199 55.3662 77.3199C56.2041 77.3199 56.9137 77.1489 57.4952 76.8069C58.0766 76.4649 58.5853 76.0075 59.0213 75.4346L60.4578 76.576C60.1585 77.0292 59.778 77.461 59.3163 77.8714C58.8546 78.2818 58.286 78.6152 57.6106 78.8717C56.9437 79.1283 56.1528 79.2565 55.2379 79.2565ZM65.0107 65.1232L68.0502 70.1763L71.1283 65.1232H73.9113L69.3712 71.9718L74.0524 79H71.3078L68.1015 73.793L64.8953 79H62.1378L66.8062 71.9718L62.2789 65.1232H65.0107ZM82.9402 59.3006H85.3257V76.3067L85.1205 79H82.9402V59.3006ZM94.7009 71.9462V72.2155C94.7009 73.2244 94.5812 74.1606 94.3418 75.0242C94.1024 75.8792 93.7518 76.6231 93.2901 77.2558C92.8284 77.8885 92.2641 78.3801 91.5972 78.7307C90.9303 79.0812 90.165 79.2565 89.3015 79.2565C88.4208 79.2565 87.647 79.1069 86.9801 78.8076C86.3218 78.4998 85.766 78.0595 85.3129 77.4866C84.8597 76.9138 84.4963 76.2212 84.2227 75.409C83.9577 74.5967 83.7739 73.6818 83.6713 72.6644V71.4845C83.7739 70.4585 83.9577 69.5393 84.2227 68.7271C84.4963 67.9148 84.8597 67.2222 85.3129 66.6494C85.766 66.068 86.3218 65.6277 86.9801 65.3284C87.6385 65.0206 88.4037 64.8667 89.2758 64.8667C90.1479 64.8667 90.9217 65.0377 91.5972 65.3797C92.2726 65.7132 92.837 66.192 93.2901 66.8161C93.7518 67.4403 94.1024 68.1884 94.3418 69.0605C94.5812 69.9241 94.7009 70.886 94.7009 71.9462ZM92.3154 72.2155V71.9462C92.3154 71.2536 92.2513 70.6038 92.123 69.9968C91.9948 69.3811 91.7896 68.8425 91.5074 68.3808C91.2253 67.9105 90.8533 67.5429 90.3916 67.2778C89.9299 67.0042 89.3613 66.8674 88.6859 66.8674C88.0874 66.8674 87.5658 66.97 87.1212 67.1752C86.6852 67.3804 86.3132 67.6583 86.0054 68.0089C85.6976 68.3509 85.4454 68.7442 85.2487 69.1888C85.0606 69.6248 84.9196 70.078 84.8255 70.5482V73.6391C84.9623 74.2376 85.1846 74.8147 85.4924 75.3705C85.8088 75.9177 86.2277 76.3666 86.7493 76.7171C87.2794 77.0677 87.9335 77.243 88.7115 77.243C89.3528 77.243 89.9 77.1147 90.3532 76.8582C90.8149 76.5931 91.1868 76.2298 91.4689 75.7681C91.7596 75.3064 91.9734 74.772 92.1102 74.1649C92.247 73.5579 92.3154 72.9081 92.3154 72.2155ZM103.46 79.2565C102.494 79.2565 101.618 79.0941 100.831 78.7691C100.053 78.4357 99.382 77.9697 98.8177 77.3712C98.262 76.7727 97.8345 76.063 97.5352 75.2422C97.236 74.4214 97.0863 73.5237 97.0863 72.549V72.0103C97.0863 70.8817 97.2531 69.8771 97.5865 68.9964C97.92 68.1072 98.3731 67.3548 98.946 66.7392C99.5188 66.1236 100.169 65.6576 100.895 65.3412C101.622 65.0249 102.375 64.8667 103.153 64.8667C104.144 64.8667 104.999 65.0377 105.718 65.3797C106.444 65.7217 107.039 66.2005 107.5 66.8161C107.962 67.4232 108.304 68.1414 108.526 68.9707C108.749 69.7916 108.86 70.6893 108.86 71.664V72.7285H98.4971V70.7919H106.487V70.6124C106.453 69.9968 106.325 69.3982 106.102 68.8168C105.889 68.2354 105.547 67.7566 105.076 67.3804C104.606 67.0042 103.965 66.8161 103.153 66.8161C102.614 66.8161 102.118 66.9315 101.665 67.1624C101.212 67.3847 100.823 67.7182 100.498 68.1628C100.173 68.6074 99.9207 69.1503 99.7411 69.7916C99.5616 70.4328 99.4718 71.1724 99.4718 72.0103V72.549C99.4718 73.2073 99.5616 73.8272 99.7411 74.4086C99.9293 74.9815 100.199 75.4859 100.549 75.922C100.908 76.358 101.34 76.7 101.844 76.948C102.357 77.1959 102.939 77.3199 103.589 77.3199C104.427 77.3199 105.136 77.1489 105.718 76.8069C106.299 76.4649 106.808 76.0075 107.244 75.4346L108.68 76.576C108.381 77.0292 108.001 77.461 107.539 77.8714C107.077 78.2818 106.509 78.6152 105.833 78.8717C105.166 79.1283 104.375 79.2565 103.46 79.2565ZM114.003 68.0858V79H111.63V65.1232H113.874L114.003 68.0858ZM113.438 71.5358L112.451 71.4973C112.459 70.5482 112.6 69.6719 112.874 68.8681C113.148 68.0559 113.532 67.3505 114.028 66.752C114.524 66.1535 115.114 65.6918 115.798 65.3669C116.491 65.0334 117.256 64.8667 118.094 64.8667C118.778 64.8667 119.394 64.9608 119.941 65.1489C120.488 65.3284 120.954 65.6191 121.339 66.021C121.732 66.4228 122.031 66.9444 122.236 67.5856C122.442 68.2183 122.544 68.9921 122.544 69.907V79H120.159V69.8813C120.159 69.1546 120.052 68.5732 119.838 68.1371C119.624 67.6925 119.312 67.3719 118.902 67.1752C118.492 66.97 117.987 66.8674 117.389 66.8674C116.799 66.8674 116.26 66.9914 115.773 67.2393C115.294 67.4873 114.879 67.8293 114.529 68.2654C114.187 68.7014 113.917 69.2016 113.721 69.7659C113.532 70.3217 113.438 70.9116 113.438 71.5358ZM126.212 65.1232H128.598V80.6544C128.598 81.5009 128.461 82.2191 128.187 82.8091C127.922 83.399 127.52 83.8436 126.982 84.1429C126.452 84.4507 125.78 84.6046 124.968 84.6046C124.754 84.6046 124.506 84.5832 124.224 84.5405C123.934 84.4977 123.69 84.4464 123.493 84.3866L123.506 82.4756C123.669 82.5098 123.852 82.5355 124.058 82.5526C124.263 82.5782 124.442 82.591 124.596 82.591C124.947 82.591 125.242 82.5269 125.481 82.3987C125.721 82.2704 125.9 82.0652 126.02 81.7831C126.148 81.5009 126.212 81.1247 126.212 80.6544V65.1232ZM125.969 61.4424C125.969 61.0576 126.088 60.7327 126.328 60.4677C126.567 60.2026 126.913 60.0701 127.366 60.0701C127.828 60.0701 128.179 60.2026 128.418 60.4677C128.658 60.7327 128.777 61.0576 128.777 61.4424C128.777 61.81 128.658 62.1264 128.418 62.3914C128.179 62.648 127.828 62.7762 127.366 62.7762C126.913 62.7762 126.567 62.648 126.328 62.3914C126.088 62.1264 125.969 61.81 125.969 61.4424ZM140.615 76.6273V69.4837C140.615 68.9365 140.504 68.462 140.281 68.0602C140.068 67.6498 139.743 67.3334 139.307 67.1111C138.871 66.8888 138.332 66.7776 137.691 66.7776C137.092 66.7776 136.566 66.8802 136.113 67.0854C135.669 67.2906 135.318 67.56 135.062 67.8934C134.814 68.2269 134.69 68.586 134.69 68.9707H132.317C132.317 68.4748 132.445 67.9832 132.702 67.4959C132.958 67.0085 133.326 66.5682 133.805 66.1749C134.292 65.773 134.873 65.4567 135.549 65.2258C136.233 64.9864 136.994 64.8667 137.832 64.8667C138.841 64.8667 139.73 65.0377 140.499 65.3797C141.277 65.7217 141.885 66.239 142.321 66.9315C142.765 67.6156 142.988 68.4748 142.988 69.5094V75.9733C142.988 76.435 143.026 76.9266 143.103 77.4482C143.188 77.9697 143.312 78.4186 143.475 78.7948V79H141C140.88 78.7264 140.786 78.363 140.717 77.9099C140.649 77.4482 140.615 77.0207 140.615 76.6273ZM141.025 70.5867L141.051 72.254H138.653C137.977 72.254 137.374 72.3096 136.844 72.4207C136.314 72.5233 135.87 72.6815 135.51 72.8952C135.151 73.109 134.878 73.3783 134.69 73.7032C134.502 74.0196 134.407 74.3915 134.407 74.819C134.407 75.2551 134.506 75.6526 134.702 76.0117C134.899 76.3708 135.194 76.6573 135.587 76.871C135.989 77.0762 136.481 77.1788 137.062 77.1788C137.789 77.1788 138.43 77.0249 138.986 76.7171C139.542 76.4093 139.982 76.0331 140.307 75.5885C140.641 75.1439 140.82 74.7121 140.846 74.2932L141.859 75.4346C141.799 75.7937 141.637 76.1913 141.372 76.6273C141.106 77.0634 140.752 77.4824 140.307 77.8842C139.871 78.2775 139.349 78.6067 138.742 78.8717C138.144 79.1283 137.468 79.2565 136.716 79.2565C135.776 79.2565 134.95 79.0727 134.241 78.705C133.54 78.3374 132.992 77.8457 132.599 77.2301C132.214 76.606 132.022 75.9091 132.022 75.1396C132.022 74.3958 132.167 73.7417 132.458 73.1774C132.749 72.6045 133.168 72.13 133.715 71.7538C134.262 71.369 134.921 71.0783 135.69 70.8817C136.46 70.685 137.319 70.5867 138.268 70.5867H141.025ZM149.079 67.8806V79H146.694V65.1232H148.951L149.079 67.8806ZM148.592 71.5358L147.489 71.4973C147.498 70.5482 147.622 69.6719 147.861 68.8681C148.1 68.0559 148.455 67.3505 148.926 66.752C149.396 66.1535 149.981 65.6918 150.683 65.3669C151.384 65.0334 152.196 64.8667 153.119 64.8667C153.769 64.8667 154.368 64.9608 154.915 65.1489C155.462 65.3284 155.937 65.6148 156.338 66.0081C156.74 66.4014 157.052 66.9059 157.275 67.5215C157.497 68.1371 157.608 68.881 157.608 69.7531V79H155.236V69.8685C155.236 69.1417 155.112 68.5603 154.864 68.1243C154.624 67.6882 154.282 67.3719 153.838 67.1752C153.393 66.97 152.871 66.8674 152.273 66.8674C151.572 66.8674 150.986 66.9914 150.516 67.2393C150.046 67.4873 149.669 67.8293 149.387 68.2654C149.105 68.7014 148.9 69.2016 148.772 69.7659C148.652 70.3217 148.592 70.9116 148.592 71.5358ZM157.583 70.2276L155.992 70.715C156.001 69.954 156.125 69.223 156.364 68.5219C156.612 67.8208 156.967 67.1966 157.429 66.6494C157.899 66.1022 158.476 65.6704 159.16 65.3541C159.844 65.0292 160.626 64.8667 161.507 64.8667C162.251 64.8667 162.909 64.965 163.482 65.1617C164.063 65.3583 164.551 65.6619 164.944 66.0723C165.346 66.4741 165.65 66.9914 165.855 67.6241C166.06 68.2568 166.163 69.0092 166.163 69.8813V79H163.777V69.8557C163.777 69.0776 163.653 68.4748 163.405 68.0473C163.166 67.6113 162.824 67.3078 162.379 67.1367C161.943 66.9572 161.422 66.8674 160.814 66.8674C160.293 66.8674 159.831 66.9572 159.429 67.1367C159.027 67.3163 158.69 67.5643 158.416 67.8806C158.143 68.1884 157.933 68.5432 157.788 68.9451C157.651 69.3469 157.583 69.7745 157.583 70.2276ZM172.331 65.1232V79H169.946V65.1232H172.331ZM169.766 61.4424C169.766 61.0576 169.882 60.7327 170.113 60.4677C170.352 60.2026 170.703 60.0701 171.164 60.0701C171.618 60.0701 171.964 60.2026 172.203 60.4677C172.451 60.7327 172.575 61.0576 172.575 61.4424C172.575 61.81 172.451 62.1264 172.203 62.3914C171.964 62.648 171.618 62.7762 171.164 62.7762C170.703 62.7762 170.352 62.648 170.113 62.3914C169.882 62.1264 169.766 61.81 169.766 61.4424ZM178.513 68.0858V79H176.14V65.1232H178.385L178.513 68.0858ZM177.949 71.5358L176.961 71.4973C176.97 70.5482 177.111 69.6719 177.385 68.8681C177.658 68.0559 178.043 67.3505 178.539 66.752C179.035 66.1535 179.625 65.6918 180.309 65.3669C181.001 65.0334 181.766 64.8667 182.604 64.8667C183.288 64.8667 183.904 64.9608 184.451 65.1489C184.998 65.3284 185.464 65.6191 185.849 66.021C186.242 66.4228 186.542 66.9444 186.747 67.5856C186.952 68.2183 187.055 68.9921 187.055 69.907V79H184.669V69.8813C184.669 69.1546 184.562 68.5732 184.349 68.1371C184.135 67.6925 183.823 67.3719 183.412 67.1752C183.002 66.97 182.497 66.8674 181.899 66.8674C181.309 66.8674 180.77 66.9914 180.283 67.2393C179.804 67.4873 179.39 67.8293 179.039 68.2654C178.697 68.7014 178.428 69.2016 178.231 69.7659C178.043 70.3217 177.949 70.9116 177.949 71.5358Z" fill="white"/>
<path d="M26.0619 126.244L28.5477 122.831L24.8129 121.718L25.3941 119.863L29.129 121.235L29.0177 116.981H30.8975L30.7738 121.31L34.4592 119.937L35.0281 121.829L31.2314 122.954L33.6677 126.306L32.1342 127.456L29.8463 123.894L27.6078 127.37L26.0619 126.244ZM36.9697 126.244L39.4555 122.831L35.7206 121.718L36.3019 119.863L40.0368 121.235L39.9255 116.981H41.8053L41.6816 121.31L45.367 119.937L45.9359 121.829L42.1392 122.954L44.5755 126.306L43.042 127.456L40.7541 123.894L38.5156 127.37L36.9697 126.244ZM47.8775 126.244L50.3633 122.831L46.6284 121.718L47.2097 119.863L50.9445 121.235L50.8332 116.981H52.713L52.5894 121.31L56.2748 119.937L56.8436 121.829L53.0469 122.954L55.4833 126.306L53.9497 127.456L51.6618 123.894L49.4234 127.37L47.8775 126.244ZM58.7853 126.244L61.2711 122.831L57.5362 121.718L58.1175 119.863L61.8523 121.235L61.741 116.981H63.6208L63.4971 121.31L67.1825 119.937L67.7514 121.829L63.9547 122.954L66.391 126.306L64.8575 127.456L62.5696 123.894L60.3312 127.37L58.7853 126.244ZM88.5405 126.244L91.0263 122.831L87.2914 121.718L87.8727 119.863L91.6076 121.235L91.4963 116.981H93.376L93.2524 121.31L96.9378 119.937L97.5067 121.829L93.71 122.954L96.1463 126.306L94.6128 127.456L92.3248 123.894L90.0864 127.37L88.5405 126.244ZM99.4483 126.244L101.934 122.831L98.1992 121.718L98.7805 119.863L102.515 121.235L102.404 116.981H104.284L104.16 121.31L107.846 119.937L108.414 121.829L104.618 122.954L107.054 126.306L105.521 127.456L103.233 123.894L100.994 127.37L99.4483 126.244ZM110.356 126.244L112.842 122.831L109.107 121.718L109.688 119.863L113.423 121.235L113.312 116.981H115.192L115.068 121.31L118.753 119.937L119.322 121.829L115.526 122.954L117.962 126.306L116.428 127.456L114.14 123.894L111.902 127.37L110.356 126.244ZM121.264 126.244L123.75 122.831L120.015 121.718L120.596 119.863L124.331 121.235L124.22 116.981H126.099L125.976 121.31L129.661 119.937L130.23 121.829L126.433 122.954L128.87 126.306L127.336 127.456L125.048 123.894L122.81 127.37L121.264 126.244ZM151.019 126.244L153.505 122.831L149.77 121.718L150.351 119.863L154.086 121.235L153.975 116.981H155.855L155.731 121.31L159.416 119.937L159.985 121.829L156.189 122.954L158.625 126.306L157.091 127.456L154.803 123.894L152.565 127.37L151.019 126.244ZM161.927 126.244L164.413 122.831L160.678 121.718L161.259 119.863L164.994 121.235L164.883 116.981H166.762L166.639 121.31L170.324 119.937L170.893 121.829L167.096 122.954L169.533 126.306L167.999 127.456L165.711 123.894L163.473 127.37L161.927 126.244ZM172.835 126.244L175.32 122.831L171.586 121.718L172.167 119.863L175.902 121.235L175.79 116.981H177.67L177.547 121.31L181.232 119.937L181.801 121.829L178.004 122.954L180.44 126.306L178.907 127.456L176.619 123.894L174.381 127.37L172.835 126.244ZM183.742 126.244L186.228 122.831L182.493 121.718L183.075 119.863L186.809 121.235L186.698 116.981H188.578L188.454 121.31L192.14 119.937L192.709 121.829L188.912 122.954L191.348 126.306L189.815 127.456L187.527 123.894L185.288 127.37L183.742 126.244ZM213.498 126.244L215.983 122.831L212.249 121.718L212.83 119.863L216.565 121.235L216.453 116.981H218.333L218.21 121.31L221.895 119.937L222.464 121.829L218.667 122.954L221.103 126.306L219.57 127.456L217.282 123.894L215.044 127.37L213.498 126.244ZM224.405 126.244L226.891 122.831L223.156 121.718L223.738 119.863L227.472 121.235L227.361 116.981H229.241L229.117 121.31L232.803 119.937L233.372 121.829L229.575 122.954L232.011 126.306L230.478 127.456L228.19 123.894L225.951 127.37L224.405 126.244ZM235.313 126.244L237.799 122.831L234.064 121.718L234.645 119.863L238.38 121.235L238.269 116.981H240.149L240.025 121.31L243.71 119.937L244.279 121.829L240.483 122.954L242.919 126.306L241.385 127.456L239.098 123.894L236.859 127.37L235.313 126.244ZM246.221 126.244L248.707 122.831L244.972 121.718L245.553 119.863L249.288 121.235L249.177 116.981H251.057L250.933 121.31L254.618 119.937L255.187 121.829L251.39 122.954L253.827 126.306L252.293 127.456L250.005 123.894L247.767 127.37L246.221 126.244Z" fill="white"/>
<path d="M280.173 115.612V128H278.607V117.567L275.451 118.718V117.304L279.927 115.612H280.173ZM286.756 122.136L285.504 121.814L286.121 115.68H292.442V117.127H287.45L287.078 120.478C287.303 120.348 287.588 120.227 287.932 120.114C288.282 120.001 288.682 119.944 289.134 119.944C289.704 119.944 290.214 120.043 290.665 120.241C291.117 120.432 291.5 120.709 291.816 121.07C292.138 121.431 292.383 121.865 292.552 122.373C292.722 122.881 292.806 123.448 292.806 124.074C292.806 124.666 292.724 125.21 292.561 125.707C292.403 126.203 292.163 126.638 291.842 127.01C291.52 127.377 291.114 127.662 290.623 127.865C290.138 128.068 289.565 128.169 288.905 128.169C288.409 128.169 287.938 128.102 287.492 127.966C287.052 127.825 286.657 127.614 286.308 127.332C285.963 127.044 285.681 126.688 285.461 126.265C285.247 125.837 285.112 125.335 285.055 124.759H286.544C286.612 125.222 286.748 125.611 286.951 125.927C287.154 126.243 287.419 126.483 287.746 126.646C288.079 126.804 288.465 126.883 288.905 126.883C289.278 126.883 289.608 126.818 289.895 126.688C290.183 126.559 290.426 126.373 290.623 126.13C290.82 125.887 290.97 125.594 291.071 125.25C291.179 124.906 291.232 124.519 291.232 124.091C291.232 123.701 291.179 123.34 291.071 123.008C290.964 122.675 290.804 122.384 290.589 122.136C290.38 121.888 290.124 121.696 289.819 121.561C289.515 121.42 289.165 121.349 288.77 121.349C288.245 121.349 287.848 121.42 287.577 121.561C287.312 121.702 287.038 121.893 286.756 122.136ZM296.081 126.688H296.242C297.144 126.688 297.878 126.562 298.442 126.308C299.006 126.054 299.44 125.713 299.745 125.284C300.049 124.855 300.258 124.373 300.371 123.837C300.484 123.295 300.54 122.74 300.54 122.17V120.283C300.54 119.724 300.475 119.228 300.346 118.794C300.221 118.359 300.047 117.995 299.821 117.702C299.601 117.409 299.35 117.186 299.068 117.034C298.786 116.881 298.487 116.805 298.171 116.805C297.81 116.805 297.485 116.879 297.198 117.025C296.916 117.166 296.676 117.366 296.479 117.626C296.287 117.885 296.14 118.19 296.039 118.54C295.937 118.89 295.886 119.27 295.886 119.682C295.886 120.049 295.931 120.404 296.022 120.748C296.112 121.092 296.25 121.403 296.436 121.679C296.622 121.956 296.854 122.176 297.13 122.339C297.412 122.497 297.742 122.576 298.12 122.576C298.47 122.576 298.797 122.508 299.102 122.373C299.412 122.232 299.686 122.043 299.922 121.806C300.165 121.563 300.357 121.29 300.498 120.985C300.644 120.681 300.729 120.362 300.752 120.029H301.496C301.496 120.497 301.403 120.96 301.217 121.417C301.037 121.868 300.783 122.28 300.456 122.652C300.128 123.025 299.745 123.324 299.305 123.549C298.865 123.769 298.385 123.879 297.866 123.879C297.257 123.879 296.73 123.761 296.284 123.524C295.838 123.287 295.472 122.971 295.184 122.576C294.902 122.181 294.69 121.741 294.549 121.256C294.414 120.765 294.346 120.269 294.346 119.767C294.346 119.18 294.428 118.63 294.592 118.117C294.755 117.603 294.998 117.152 295.319 116.763C295.641 116.368 296.039 116.061 296.512 115.841C296.992 115.621 297.545 115.511 298.171 115.511C298.876 115.511 299.477 115.652 299.973 115.934C300.47 116.216 300.873 116.594 301.183 117.067C301.499 117.541 301.73 118.074 301.877 118.667C302.024 119.259 302.097 119.868 302.097 120.494V121.061C302.097 121.699 302.055 122.348 301.97 123.008C301.891 123.662 301.736 124.288 301.505 124.886C301.279 125.484 300.949 126.02 300.515 126.494C300.08 126.962 299.513 127.334 298.814 127.611C298.12 127.882 297.263 128.017 296.242 128.017H296.081V126.688ZM312.006 120.858V122.737C312.006 123.747 311.915 124.598 311.735 125.292C311.554 125.986 311.295 126.545 310.956 126.968C310.618 127.391 310.209 127.698 309.73 127.89C309.256 128.076 308.72 128.169 308.122 128.169C307.648 128.169 307.211 128.11 306.81 127.992C306.41 127.873 306.049 127.684 305.727 127.425C305.411 127.159 305.14 126.815 304.915 126.392C304.689 125.969 304.517 125.456 304.399 124.852C304.28 124.249 304.221 123.544 304.221 122.737V120.858C304.221 119.849 304.311 119.002 304.492 118.32C304.678 117.637 304.94 117.09 305.279 116.678C305.617 116.261 306.023 115.962 306.497 115.781C306.977 115.601 307.513 115.511 308.105 115.511C308.584 115.511 309.024 115.57 309.425 115.688C309.831 115.801 310.192 115.984 310.508 116.238C310.824 116.486 311.092 116.819 311.312 117.237C311.538 117.649 311.71 118.153 311.828 118.751C311.946 119.349 312.006 120.052 312.006 120.858ZM310.432 122.991V120.596C310.432 120.043 310.398 119.558 310.33 119.141C310.268 118.718 310.175 118.356 310.051 118.058C309.927 117.759 309.769 117.516 309.577 117.33C309.391 117.144 309.174 117.008 308.926 116.924C308.683 116.833 308.41 116.788 308.105 116.788C307.733 116.788 307.403 116.859 307.115 117C306.827 117.135 306.585 117.352 306.387 117.651C306.195 117.95 306.049 118.342 305.947 118.828C305.846 119.313 305.795 119.902 305.795 120.596V122.991C305.795 123.544 305.826 124.031 305.888 124.455C305.956 124.878 306.054 125.244 306.184 125.555C306.314 125.859 306.472 126.11 306.658 126.308C306.844 126.505 307.058 126.652 307.301 126.748C307.549 126.838 307.823 126.883 308.122 126.883C308.505 126.883 308.841 126.81 309.129 126.663C309.416 126.516 309.656 126.288 309.848 125.978C310.045 125.662 310.192 125.258 310.288 124.768C310.384 124.271 310.432 123.679 310.432 122.991Z" fill="white"/>
<path d="M27.4714 196.797L26.1467 196.457L26.8001 189.968H33.4864V191.498H28.2054L27.8116 195.043C28.0503 194.905 28.3516 194.777 28.7156 194.658C29.0856 194.538 29.5093 194.479 29.9866 194.479C30.5893 194.479 31.1294 194.583 31.6067 194.792C32.0841 194.995 32.4899 195.287 32.8241 195.669C33.1642 196.051 33.4238 196.511 33.6028 197.048C33.7818 197.585 33.8713 198.184 33.8713 198.847C33.8713 199.473 33.7848 200.049 33.6117 200.574C33.4447 201.099 33.1911 201.559 32.8509 201.953C32.5108 202.341 32.0811 202.642 31.562 202.857C31.0488 203.072 30.4431 203.179 29.745 203.179C29.2198 203.179 28.7216 203.107 28.2502 202.964C27.7847 202.815 27.367 202.591 26.997 202.293C26.633 201.989 26.3347 201.613 26.1019 201.165C25.8752 200.712 25.732 200.18 25.6723 199.572H27.2477C27.3193 200.061 27.4625 200.473 27.6773 200.807C27.8921 201.141 28.1726 201.395 28.5187 201.568C28.8708 201.735 29.2795 201.818 29.745 201.818C30.1388 201.818 30.4879 201.75 30.7922 201.613C31.0965 201.475 31.3531 201.278 31.562 201.022C31.7708 200.765 31.929 200.455 32.0364 200.091C32.1498 199.727 32.2065 199.318 32.2065 198.865C32.2065 198.453 32.1498 198.071 32.0364 197.719C31.923 197.367 31.7529 197.06 31.5262 196.797C31.3054 196.534 31.0339 196.332 30.7117 196.188C30.3894 196.039 30.0195 195.965 29.6017 195.965C29.0468 195.965 28.6261 196.039 28.3397 196.188C28.0592 196.338 27.7698 196.54 27.4714 196.797ZM37.3711 201.031V202.364C37.3711 202.908 37.2339 203.48 36.9594 204.083C36.6849 204.692 36.3 205.199 35.8047 205.605L34.8649 204.951C35.0558 204.689 35.2169 204.42 35.3482 204.146C35.4795 203.877 35.578 203.597 35.6436 203.304C35.7152 203.018 35.751 202.714 35.751 202.391V201.031H37.3711ZM41.399 196.797L40.0743 196.457L40.7277 189.968H47.414V191.498H42.133L41.7391 195.043C41.9778 194.905 42.2792 194.777 42.6432 194.658C43.0132 194.538 43.4368 194.479 43.9142 194.479C44.5169 194.479 45.0569 194.583 45.5343 194.792C46.0117 194.995 46.4175 195.287 46.7516 195.669C47.0918 196.051 47.3514 196.511 47.5304 197.048C47.7094 197.585 47.7989 198.184 47.7989 198.847C47.7989 199.473 47.7124 200.049 47.5393 200.574C47.3722 201.099 47.1186 201.559 46.7785 201.953C46.4384 202.341 46.0087 202.642 45.4896 202.857C44.9764 203.072 44.3707 203.179 43.6725 203.179C43.1474 203.179 42.6492 203.107 42.1777 202.964C41.7123 202.815 41.2946 202.591 40.9246 202.293C40.5606 201.989 40.2623 201.613 40.0295 201.165C39.8028 200.712 39.6596 200.18 39.5999 199.572H41.1752C41.2468 200.061 41.3901 200.473 41.6049 200.807C41.8197 201.141 42.1002 201.395 42.4463 201.568C42.7983 201.735 43.2071 201.818 43.6725 201.818C44.0664 201.818 44.4155 201.75 44.7198 201.613C45.0241 201.475 45.2807 201.278 45.4896 201.022C45.6984 200.765 45.8566 200.455 45.964 200.091C46.0773 199.727 46.134 199.318 46.134 198.865C46.134 198.453 46.0773 198.071 45.964 197.719C45.8506 197.367 45.6805 197.06 45.4538 196.797C45.233 196.534 44.9615 196.332 44.6392 196.188C44.317 196.039 43.947 195.965 43.5293 195.965C42.9744 195.965 42.5537 196.039 42.2672 196.188C41.9868 196.338 41.6974 196.54 41.399 196.797ZM57.8328 199.473C57.8328 200.267 57.6479 200.941 57.2779 201.496C56.9139 202.045 56.4186 202.463 55.792 202.749C55.1714 203.036 54.4703 203.179 53.6886 203.179C52.9069 203.179 52.2027 203.036 51.5762 202.749C50.9496 202.463 50.4543 202.045 50.0903 201.496C49.7263 200.941 49.5443 200.267 49.5443 199.473C49.5443 198.954 49.6428 198.48 49.8397 198.05C50.0426 197.615 50.326 197.236 50.69 196.913C51.06 196.591 51.4956 196.344 51.9969 196.17C52.5041 195.991 53.062 195.902 53.6707 195.902C54.4703 195.902 55.1834 196.057 55.8099 196.367C56.4365 196.672 56.9288 197.092 57.2868 197.629C57.6508 198.167 57.8328 198.781 57.8328 199.473ZM56.168 199.438C56.168 198.954 56.0635 198.528 55.8547 198.158C55.6458 197.782 55.3534 197.489 54.9775 197.28C54.6016 197.072 54.166 196.967 53.6707 196.967C53.1635 196.967 52.7249 197.072 52.3549 197.28C51.9909 197.489 51.7075 197.782 51.5046 198.158C51.3017 198.528 51.2002 198.954 51.2002 199.438C51.2002 199.939 51.2987 200.368 51.4956 200.726C51.6985 201.079 51.9849 201.35 52.3549 201.541C52.7308 201.726 53.1754 201.818 53.6886 201.818C54.2018 201.818 54.6433 201.726 55.0133 201.541C55.3833 201.35 55.6667 201.079 55.8636 200.726C56.0665 200.368 56.168 199.939 56.168 199.438ZM57.5285 193.36C57.5285 193.992 57.3614 194.562 57.0273 195.07C56.6931 195.577 56.2366 195.977 55.6578 196.269C55.079 196.561 54.4226 196.708 53.6886 196.708C52.9427 196.708 52.2773 196.561 51.6925 196.269C51.1137 195.977 50.6602 195.577 50.332 195.07C50.0038 194.562 49.8397 193.992 49.8397 193.36C49.8397 192.602 50.0038 191.958 50.332 191.427C50.6662 190.895 51.1227 190.49 51.7015 190.209C52.2803 189.929 52.9397 189.788 53.6796 189.788C54.4255 189.788 55.0879 189.929 55.6667 190.209C56.2455 190.49 56.6991 190.895 57.0273 191.427C57.3614 191.958 57.5285 192.602 57.5285 193.36ZM55.8726 193.387C55.8726 192.951 55.7801 192.566 55.5951 192.232C55.4101 191.898 55.1535 191.635 54.8253 191.444C54.4971 191.247 54.1152 191.149 53.6796 191.149C53.244 191.149 52.8621 191.242 52.5339 191.427C52.2117 191.606 51.9581 191.862 51.7731 192.196C51.5941 192.53 51.5046 192.927 51.5046 193.387C51.5046 193.834 51.5941 194.225 51.7731 194.559C51.9581 194.893 52.2147 195.153 52.5429 195.338C52.8711 195.523 53.253 195.616 53.6886 195.616C54.1242 195.616 54.5031 195.523 54.8253 195.338C55.1535 195.153 55.4101 194.893 55.5951 194.559C55.7801 194.225 55.8726 193.834 55.8726 193.387ZM68.1085 195.445V197.433C68.1085 198.501 68.013 199.402 67.822 200.136C67.6311 200.87 67.3566 201.46 66.9985 201.908C66.6405 202.356 66.2079 202.681 65.7007 202.884C65.1994 203.081 64.6325 203.179 64 203.179C63.4988 203.179 63.0363 203.116 62.6126 202.991C62.1889 202.866 61.807 202.666 61.4669 202.391C61.1327 202.111 60.8463 201.747 60.6076 201.299C60.3689 200.852 60.1869 200.309 60.0616 199.67C59.9363 199.032 59.8736 198.286 59.8736 197.433V195.445C59.8736 194.377 59.9691 193.482 60.1601 192.76C60.357 192.038 60.6345 191.459 60.9925 191.024C61.3505 190.582 61.7802 190.266 62.2814 190.075C62.7886 189.884 63.3555 189.788 63.9821 189.788C64.4893 189.788 64.9548 189.851 65.3784 189.976C65.8081 190.096 66.19 190.29 66.5242 190.558C66.8583 190.821 67.1418 191.173 67.3745 191.614C67.6132 192.05 67.7952 192.584 67.9205 193.217C68.0458 193.849 68.1085 194.592 68.1085 195.445ZM66.4436 197.701V195.168C66.4436 194.583 66.4078 194.07 66.3362 193.628C66.2705 193.181 66.1721 192.799 66.0408 192.483C65.9095 192.166 65.7424 191.91 65.5396 191.713C65.3426 191.516 65.1129 191.373 64.8503 191.283C64.5937 191.188 64.3043 191.14 63.9821 191.14C63.5883 191.14 63.2392 191.215 62.9348 191.364C62.6305 191.507 62.3739 191.737 62.1651 192.053C61.9622 192.369 61.807 192.784 61.6996 193.297C61.5922 193.81 61.5385 194.434 61.5385 195.168V197.701C61.5385 198.286 61.5713 198.802 61.637 199.25C61.7086 199.697 61.813 200.085 61.9502 200.413C62.0875 200.735 62.2546 201.001 62.4515 201.21C62.6484 201.419 62.8752 201.574 63.1318 201.675C63.3943 201.771 63.6837 201.818 64 201.818C64.4058 201.818 64.7608 201.741 65.0652 201.586C65.3695 201.431 65.6231 201.189 65.826 200.861C66.0348 200.527 66.19 200.1 66.2914 199.581C66.3929 199.056 66.4436 198.429 66.4436 197.701ZM71.9215 201.031V202.364C71.9215 202.908 71.7843 203.48 71.5098 204.083C71.2353 204.692 70.8504 205.199 70.3551 205.605L69.4153 204.951C69.6062 204.689 69.7674 204.42 69.8986 204.146C70.0299 203.877 70.1284 203.597 70.194 203.304C70.2656 203.018 70.3014 202.714 70.3014 202.391V201.031H71.9215ZM82.3941 201.639V203H73.8639V201.81L78.1335 197.057C78.6586 196.472 79.0643 195.977 79.3508 195.571C79.6432 195.159 79.8461 194.792 79.9594 194.47C80.0788 194.142 80.1384 193.807 80.1384 193.467C80.1384 193.038 80.0489 192.65 79.8699 192.304C79.6969 191.952 79.4403 191.671 79.1001 191.462C78.76 191.253 78.3483 191.149 77.8649 191.149C77.2861 191.149 76.8028 191.262 76.4149 191.489C76.033 191.71 75.7465 192.02 75.5556 192.42C75.3646 192.82 75.2692 193.279 75.2692 193.798H73.6133C73.6133 193.065 73.7744 192.393 74.0966 191.785C74.4188 191.176 74.8962 190.693 75.5287 190.334C76.1613 189.97 76.94 189.788 77.8649 189.788C78.6884 189.788 79.3925 189.935 79.9773 190.227C80.5621 190.514 81.0097 190.919 81.32 191.444C81.6362 191.964 81.7944 192.572 81.7944 193.27C81.7944 193.652 81.7287 194.04 81.5974 194.434C81.4721 194.822 81.2961 195.21 81.0693 195.598C80.8486 195.985 80.589 196.367 80.2906 196.743C79.9982 197.119 79.6849 197.489 79.3508 197.853L75.8599 201.639H82.3941ZM92.3475 195.445V197.433C92.3475 198.501 92.252 199.402 92.061 200.136C91.8701 200.87 91.5956 201.46 91.2375 201.908C90.8795 202.356 90.4469 202.681 89.9397 202.884C89.4384 203.081 88.8715 203.179 88.239 203.179C87.7378 203.179 87.2753 203.116 86.8516 202.991C86.4279 202.866 86.046 202.666 85.7059 202.391C85.3717 202.111 85.0853 201.747 84.8466 201.299C84.6079 200.852 84.4259 200.309 84.3006 199.67C84.1753 199.032 84.1126 198.286 84.1126 197.433V195.445C84.1126 194.377 84.2081 193.482 84.3991 192.76C84.596 192.038 84.8735 191.459 85.2315 191.024C85.5895 190.582 86.0192 190.266 86.5204 190.075C87.0276 189.884 87.5945 189.788 88.2211 189.788C88.7283 189.788 89.1938 189.851 89.6174 189.976C90.0471 190.096 90.429 190.29 90.7632 190.558C91.0973 190.821 91.3808 191.173 91.6135 191.614C91.8522 192.05 92.0342 192.584 92.1595 193.217C92.2848 193.849 92.3475 194.592 92.3475 195.445ZM90.6826 197.701V195.168C90.6826 194.583 90.6468 194.07 90.5752 193.628C90.5095 193.181 90.4111 192.799 90.2798 192.483C90.1485 192.166 89.9814 191.91 89.7786 191.713C89.5816 191.516 89.3519 191.373 89.0893 191.283C88.8327 191.188 88.5433 191.14 88.2211 191.14C87.8273 191.14 87.4782 191.215 87.1738 191.364C86.8695 191.507 86.6129 191.737 86.4041 192.053C86.2012 192.369 86.046 192.784 85.9386 193.297C85.8312 193.81 85.7775 194.434 85.7775 195.168V197.701C85.7775 198.286 85.8103 198.802 85.876 199.25C85.9476 199.697 86.052 200.085 86.1892 200.413C86.3265 200.735 86.4936 201.001 86.6905 201.21C86.8874 201.419 87.1142 201.574 87.3708 201.675C87.6333 201.771 87.9227 201.818 88.239 201.818C88.6448 201.818 88.9998 201.741 89.3042 201.586C89.6085 201.431 89.8621 201.189 90.065 200.861C90.2738 200.527 90.429 200.1 90.5304 199.581C90.6319 199.056 90.6826 198.429 90.6826 197.701ZM102.659 195.445V197.433C102.659 198.501 102.563 199.402 102.372 200.136C102.182 200.87 101.907 201.46 101.549 201.908C101.191 202.356 100.758 202.681 100.251 202.884C99.7498 203.081 99.183 203.179 98.5504 203.179C98.0492 203.179 97.5867 203.116 97.163 202.991C96.7394 202.866 96.3575 202.666 96.0173 202.391C95.6832 202.111 95.3967 201.747 95.158 201.299C94.9193 200.852 94.7373 200.309 94.612 199.67C94.4867 199.032 94.4241 198.286 94.4241 197.433V195.445C94.4241 194.377 94.5195 193.482 94.7105 192.76C94.9074 192.038 95.1849 191.459 95.5429 191.024C95.901 190.582 96.3306 190.266 96.8319 190.075C97.3391 189.884 97.906 189.788 98.5325 189.788C99.0397 189.788 99.5052 189.851 99.9289 189.976C100.359 190.096 100.74 190.29 101.075 190.558C101.409 190.821 101.692 191.173 101.925 191.614C102.164 192.05 102.346 192.584 102.471 193.217C102.596 193.849 102.659 194.592 102.659 195.445ZM100.994 197.701V195.168C100.994 194.583 100.958 194.07 100.887 193.628C100.821 193.181 100.723 192.799 100.591 192.483C100.46 192.166 100.293 191.91 100.09 191.713C99.8931 191.516 99.6633 191.373 99.4008 191.283C99.1442 191.188 98.8548 191.14 98.5325 191.14C98.1387 191.14 97.7896 191.215 97.4853 191.364C97.1809 191.507 96.9243 191.737 96.7155 192.053C96.5126 192.369 96.3575 192.784 96.25 193.297C96.1426 193.81 96.0889 194.434 96.0889 195.168V197.701C96.0889 198.286 96.1218 198.802 96.1874 199.25C96.259 199.697 96.3634 200.085 96.5007 200.413C96.6379 200.735 96.805 201.001 97.0019 201.21C97.1988 201.419 97.4256 201.574 97.6822 201.675C97.9447 201.771 98.2342 201.818 98.5504 201.818C98.9562 201.818 99.3113 201.741 99.6156 201.586C99.9199 201.431 100.174 201.189 100.376 200.861C100.585 200.527 100.74 200.1 100.842 199.581C100.943 199.056 100.994 198.429 100.994 197.701Z" fill="white"/>
<path d="M120.377 187.855V190.585H119.035V187.855H120.377ZM120.216 202.472V204.862H118.882V202.472H120.216ZM122.006 199.643C122.006 199.285 121.926 198.963 121.765 198.677C121.603 198.39 121.338 198.128 120.968 197.889C120.598 197.65 120.103 197.43 119.482 197.227C118.73 196.994 118.08 196.711 117.531 196.376C116.988 196.042 116.567 195.627 116.269 195.132C115.976 194.637 115.83 194.037 115.83 193.333C115.83 192.599 115.988 191.967 116.305 191.435C116.621 190.904 117.068 190.496 117.647 190.209C118.226 189.923 118.906 189.78 119.688 189.78C120.297 189.78 120.84 189.872 121.317 190.057C121.794 190.236 122.197 190.505 122.525 190.863C122.86 191.221 123.113 191.659 123.286 192.178C123.465 192.698 123.555 193.297 123.555 193.978H121.908C121.908 193.578 121.86 193.211 121.765 192.877C121.669 192.542 121.526 192.253 121.335 192.008C121.144 191.758 120.911 191.567 120.637 191.435C120.362 191.298 120.046 191.23 119.688 191.23C119.187 191.23 118.772 191.316 118.444 191.489C118.122 191.662 117.883 191.907 117.728 192.223C117.573 192.533 117.495 192.894 117.495 193.306C117.495 193.688 117.573 194.022 117.728 194.309C117.883 194.595 118.145 194.855 118.515 195.087C118.891 195.314 119.408 195.538 120.064 195.759C120.834 196.003 121.487 196.293 122.024 196.627C122.561 196.955 122.97 197.361 123.25 197.844C123.531 198.322 123.671 198.915 123.671 199.626C123.671 200.395 123.498 201.046 123.152 201.577C122.806 202.102 122.32 202.502 121.693 202.776C121.066 203.051 120.332 203.188 119.491 203.188C118.984 203.188 118.483 203.119 117.987 202.982C117.492 202.845 117.044 202.621 116.645 202.311C116.245 201.995 115.926 201.58 115.687 201.067C115.448 200.547 115.329 199.912 115.329 199.16H116.994C116.994 199.667 117.065 200.088 117.209 200.422C117.358 200.75 117.555 201.013 117.799 201.21C118.044 201.401 118.313 201.538 118.605 201.622C118.903 201.699 119.199 201.738 119.491 201.738C120.028 201.738 120.482 201.654 120.852 201.487C121.228 201.314 121.514 201.07 121.711 200.753C121.908 200.437 122.006 200.067 122.006 199.643Z" fill="white"/>
<defs>
<linearGradient id="paint0_linear_102_22" x1="139" y1="161" x2="493" y2="-33" gradientUnits="userSpaceOnUse">
<stop stop-color="#3988D0"/>
<stop offset="1" stop-color="#3376B4" stop-opacity="0"/>
</linearGradient>
</defs>
</svg>